/* XPM */
static char *_89600e6884b4db0c27b30b870851762Imw2qg2PhxfHR4ES[] = {
/* columns rows colors chars-per-pixel */
"32 32 173 2 ",
"   c #020202",
".  c #06070A",
"X  c #0B0B0A",
"o  c #150F0D",
"O  c #0B110B",
"+  c #19100C",
"@  c #0C0F18",
"#  c #160F16",
"$  c #180F11",
"%  c #141416",
"&  c #1B1612",
"*  c #261A1A",
"=  c #152215",
"-  c #192419",
";  c #192A19",
":  c #1F331F",
">  c #272A1C",
",  c #34221A",
"<  c #38251D",
"1  c #24321F",
"2  c #0F162A",
"3  c #1C1B25",
"4  c #10172B",
"5  c #171E36",
"6  c #251B25",
"7  c #17213E",
"8  c #1B2638",
"9  c #2C2325",
"0  c #312527",
"q  c #203320",
"w  c #2A2B38",
"e  c #342533",
"r  c #3A2637",
"t  c #3B2937",
"y  c #372939",
"u  c #3A2A3B",
"i  c #3A3836",
"p  c #3C323B",
"a  c #462E23",
"s  c #44282F",
"d  c #4C3226",
"f  c #4C3528",
"g  c #573A2B",
"h  c #5C3D2E",
"j  c #4E3532",
"k  c #553932",
"l  c #5B3D31",
"z  c #294429",
"x  c #32482D",
"c  c #374936",
"v  c #315131",
"b  c #385439",
"n  c #395D39",
"m  c #3D643D",
"M  c #4F4530",
"N  c #5F4030",
"B  c #5D5B3E",
"V  c #604030",
"C  c #182241",
"Z  c #1D2E52",
"A  c #202C4F",
"S  c #382F45",
"D  c #3E394E",
"F  c #202D55",
"G  c #293B56",
"H  c #22315C",
"J  c #3F3E55",
"K  c #393D5A",
"L  c #263461",
"P  c #313760",
"I  c #493541",
"U  c #463A4B",
"Y  c #5B3A49",
"T  c #413E55",
"R  c #384741",
"E  c #2F435D",
"W  c #2E427D",
"Q  c #30437C",
"!  c #414541",
"~  c #4A4645",
"^  c #434659",
"/  c #514555",
"(  c #504758",
")  c #5C515B",
"_  c #426C42",
"`  c #4B694B",
"'  c #477447",
"]  c #487748",
"[  c #4C7C4C",
"{  c #527952",
"}  c #72694D",
"|  c #484960",
" . c #595365",
".. c #5B597F",
"X. c #6D4D61",
"o. c #6E5E69",
"O. c #656275",
"+. c #69667A",
"@. c #86654A",
"#. c #A67959",
"$. c #875060",
"%. c #935665",
"&. c #AF5C67",
"*. c #AD6172",
"=. c #CD6368",
"-. c #D26063",
";. c #E46667",
":. c #E86868",
">. c #4F804F",
",. c #528452",
"<. c #5A8452",
"1. c #568C56",
"2. c #588E57",
"3. c #588F58",
"4. c #599157",
"5. c #589058",
"6. c #C2906E",
"7. c #D3996D",
"8. c #374A89",
"9. c #394D8F",
"0. c #3D588C",
"q. c #395195",
"w. c #38539A",
"e. c #3E599F",
"r. c #3A59A1",
"t. c #3C61A9",
"y. c #3C6AB4",
"u. c #3B70B6",
"i. c #3F72B9",
"p. c #405B87",
"a. c #585880",
"s. c #4F5C96",
"d. c #575E90",
"f. c #697382",
"g. c #737E8E",
"h. c #4961A2",
"j. c #4077BF",
"k. c #4078BF",
"l. c #4079C1",
"z. c #9F7F90",
"x. c #748091",
"c. c #5A80C4",
"v. c #648ACA",
"b. c #6997D9",
"n. c #9C8498",
"m. c #AC8595",
"M. c #A0889C",
"N. c #838FA2",
"B. c #8592A5",
"V. c #99A2B6",
"C. c #A9A9BD",
"Z. c #C8929C",
"A. c #C5A08B",
"S. c #E7B798",
"D. c #DE9CA0",
"F. c #EFA1A1",
"G. c #F8D5BC",
"H. c #A5B4CB",
"J. c #A5B4CC",
"K. c #A9B9D1",
"L. c #BACADD",
"P. c #BECDE0",
"I. c #C2CCDD",
"U. c #D7D7DF",
"Y. c #C0CFE0",
"T. c #C7D6E7",
"R. c #C9D9E9",
"E. c #DCE4EE",
"W. c #E6E6EB",
"Q. c #E6ECF2",
"!. c #EAEFF3",
"~. c #ECF0F4",
"^. c #F8F8F8",
/* pixels */
"5.5.5.5.5.5.5.5.5.5.5.5.5.5.5.5.5.5.5.5.5.5.5.5.5.5.5.5.5.5.5.5.",
"5.5.5.5.5.5.5.5.5.5.5.,.u p p p p p p p 5.5.5.5.5.5.5.5.5.5.5.5.",
"5.5.5.5.5.5.5.5.5.p p I -.-.-.-.-.-.-.-.p p ! 5.5.5.5.5.5.5.5.5.",
"5.5.5.5.5.5.5.,.y %.&.;.:.:.*.....=.:.:.;.-.$.y ` 3.5.5.5.5.5.5.",
"5.5.5.5.5.5.m b Y m.Z.F.F.F.m.a.a.Z.F.F.F.D.z.Y ~ _ 5.5.5.5.5.5.",
"5.5.5.5.5.5.= % n.T.E.^.^.^.U.C.C.W.^.^.^.~.I.M.~ q 3.5.5.5.5.5.",
"5.5.5.5.2._ R ^ J.P.R.~.^.^.^.^.^.^.^.^.!.E.L.K.f.R m 1.5.5.5.5.",
"5.5.5.5.1.X N.K.K.K.K.Y.Q.Q.Q.Q.Q.Q.Q.Q.L.L.K.K.K.g.  [ 5.5.5.5.",
"5.5.5.5.1.X N.K.K.K.K.K.R.R.R.R.R.R.R.R.K.K.K.K.K.g.  [ 5.5.5.5.",
"5.5.5.5.1.X B.K.K.K.K.K.K.K.K.K.K.K.K.K.K.K.K.K.K.x.  [ 5.5.5.5.",
"5.5.2.2.1.p y U J.K.K.K.K.O.y y y y u K.K.K.K.K.+.6   [ 2.2.5.5.",
"5.2.- 6 r %.I U H.K.K.K.K.O.u u u u I K.K.K.K.H.+.Y %.$ . O 5.5.",
"5.5.5.z   g V l e H.K.K.K.K.K.K.K.K.K.K.K.K.V.e j V V X v 5.5.5.",
"5.5.5.>._ & f N k / (  .K.K.K.K.K.K.K.J.( ( / k l d o m ,.5.5.5.",
"5.5.5.5.3.>.- o t l l l U U U U U U U U l l k t * 1 [ 2.5.5.5.5.",
"5.5.5.5.5.5.i 0 k N V N k k k k k k k k V V l k * : 3.5.5.5.5.5.",
"5.5.5.5.5.5.{ ` + + , g + a V V V V h + V f + + x [ 5.5.5.5.5.5.",
"5.5.5.5.5.5.' n     + a 2 0 a a a a a 4 a < . ; m 5.5.5.5.5.5.5.",
"5.5.5.5.2.n M j 3 7 4 . H 7 7 C % 5 C w.E G 8 b ] 5.5.5.5.5.5.5.",
"5.5.5.5.1.X #.6.) Q F @ X L 8.W S 8.q.W b.c.q.@ b <.5.5.5.5.5.5.",
"5.5.5.5.2.; @.#.#.8 Z 9.t P A @ K q.w.  W 9.v.d.o.} <.2.5.5.5.5.",
"5.5.5.5.5.5.=     u.y.9.y # 3 T 9.i.i.    4 s.7.S.A.V <.5.5.5.5.",
"5.5.5.5.5.4.0.e.b.T.V.e   w p.k.k.l.j.q.    9 G.G.A.V <.5.5.5.5.",
"5.5.5.5.5.4.p.h.R.| D e   H t.l.l.r.q.J   ; [   < B 2.5.5.5.5.5.",
"5.5.5.5.5.5.- @ ^ ^ w . y y y u u u u y y c 5.1.2.2.5.5.5.5.5.5.",
"5.5.5.5.5.5.2.[ . . # y y y t y X d l l   ; 5.5.5.5.5.5.5.5.5.5.",
"5.5.5.5.5.5.5.2._ _ v # y y ! { _ > & & _ ' 5.5.5.5.5.5.5.5.5.5.",
"5.5.5.5.5.5.5.5.5.3.m X T J w % >.,.[ [ 5.5.5.5.5.5.5.3.5.5.5.5.",
"5.5.5.5.5.5.5.5.5.3.m X X.X.t   [ 5.5.5.5.5.5.5.5.5.5.5.5.5.5.5.",
"5.5.5.5.5.5.5.5.3.3.[ v s s i v ,.5.5.5.5.5.5.5.5.5.5.5.5.5.5.5.",
"5.5.5.5.5.5.5.5.5.5.5.,.= = v 5.5.5.5.5.5.5.5.5.5.5.5.5.5.5.5.5.",
"5.5.5.5.5.5.5.5.5.5.5.5.2.2.3.5.5.5.5.5.5.5.5.5.5.5.5.5.5.5.5.5."
};
