/* XPM */
static char *b15101c97f004d6bffe36bb993e37edakOm8jFz3oTdGcmYV[] = {
/* columns rows colors chars-per-pixel */
"32 32 200 2 ",
"   c #030303",
".  c #080608",
"X  c #0D0A0C",
"o  c #130D09",
"O  c #0D130C",
"+  c #1A120E",
"@  c #0D0E15",
"#  c #120D12",
"$  c #111C11",
"%  c #1B1618",
"&  c #261A14",
"*  c #291C16",
"=  c #172617",
"-  c #1C231C",
";  c #222C1D",
":  c #2F2F1F",
">  c #33221B",
",  c #38261D",
"<  c #1B1A21",
"1  c #141B31",
"2  c #221822",
"3  c #1F2236",
"4  c #282728",
"5  c #252D2B",
"6  c #362527",
"7  c #283824",
"8  c #303422",
"9  c #2D2D3F",
"0  c #352635",
"q  c #382736",
"w  c #372838",
"e  c #392A3A",
"r  c #3A303A",
"t  c #402C2F",
"y  c #4D3327",
"u  c #45342E",
"i  c #5B3D2E",
"p  c #432D3C",
"a  c #453036",
"s  c #473637",
"d  c #513731",
"f  c #5A3C32",
"g  c #593F38",
"h  c #2B452B",
"j  c #2C492D",
"k  c #344A2E",
"l  c #334D30",
"z  c #335333",
"x  c #395A39",
"c  c #3C623C",
"v  c #5E4136",
"b  c #475A3A",
"n  c #614131",
"m  c #63463A",
"M  c #392D41",
"N  c #3C3144",
"B  c #393649",
"V  c #3C344A",
"C  c #293756",
"Z  c #3F3D54",
"A  c #2F3E6F",
"S  c #383A60",
"D  c #40354A",
"F  c #473B4C",
"G  c #5A3A47",
"H  c #433A51",
"J  c #413F58",
"K  c #3C476C",
"L  c #344C79",
"P  c #404140",
"I  c #465546",
"U  c #4F4554",
"Y  c #44425A",
"T  c #4C455C",
"R  c #444D58",
"E  c #455158",
"W  c #495B59",
"Q  c #5A535F",
"!  c #674346",
"~  c #774547",
"^  c #764A5B",
"/  c #6A5353",
"(  c #406740",
")  c #426D42",
"_  c #5E6744",
"`  c #477347",
"'  c #497749",
"]  c #4B7B4C",
"[  c #4D645B",
"{  c #4F7158",
"}  c #507258",
"|  c #72625B",
" . c #4E496B",
".. c #565574",
"X. c #56557C",
"o. c #5B577C",
"O. c #5C587E",
"+. c #60587D",
"@. c #5E6B76",
"#. c #69616E",
"$. c #6E6C6E",
"%. c #9B4B48",
"&. c #834D5C",
"*. c #855058",
"=. c #A84D4C",
"-. c #8B6957",
";. c #99705D",
":. c #A0745E",
">. c #AC7E5D",
",. c #8C5261",
"<. c #935665",
"1. c #985765",
"2. c #995868",
"3. c #AC5C68",
"4. c #B05E68",
"5. c #8D7163",
"6. c #9B7766",
"7. c #816D71",
"8. c #CE5F61",
"9. c #CA6268",
"0. c #D66467",
"q. c #D96465",
"w. c #D6666A",
"e. c #E56767",
"r. c #E46768",
"t. c #E86868",
"y. c #EA7D7D",
"u. c #4F814F",
"i. c #528652",
"p. c #568456",
"a. c #558C55",
"s. c #598D56",
"d. c #588F58",
"f. c #589058",
"g. c #589158",
"h. c #B0815F",
"j. c #9D8579",
"k. c #BF8B67",
"l. c #A9897B",
"z. c #B38E79",
"x. c #C8926B",
"c. c #C19170",
"v. c #354B8E",
"b. c #384C8D",
"n. c #3D598D",
"m. c #384E94",
"M. c #395097",
"N. c #396298",
"B. c #3F70B3",
"V. c #585981",
"C. c #445B9D",
"Z. c #486C9F",
"A. c #6D7288",
"S. c #4177BD",
"D. c #5579BF",
"F. c #437BC2",
"G. c #72A2DF",
"H. c #71A2E4",
"J. c #9F8193",
"K. c #A9928B",
"L. c #848AA4",
"P. c #8A92A6",
"I. c #9298B0",
"U. c #A597AC",
"Y. c #B0A6AF",
"T. c #ACB1BF",
"R. c #B3B3BD",
"E. c #EC8C8C",
"W. c #CBA58B",
"Q. c #CCAD9A",
"!. c #CDB09B",
"~. c #D2B09C",
"^. c #E4B496",
"/. c #E8B89A",
"(. c #D1B1A0",
"). c #E4BDA3",
"_. c #D9C4BC",
"`. c #F2C8AD",
"'. c #F6CEB5",
"]. c #F8CFB7",
"[. c #F7D2BA",
"{. c #F8D1B9",
"}. c #A9B3CA",
"|. c #B2BED2",
" X c #B7C4D6",
".X c #AFC6E0",
"XX c #B1C8E2",
"oX c #C5C5CD",
"OX c #C1CFDF",
"+X c #DAD5DD",
"@X c #E7C6C9",
"#X c #EDCDC8",
"$X c #E9D8D6",
"%X c #F5DBDB",
"&X c #F5E5DA",
"*X c #C7D7E7",
"=X c #C5D6E8",
"-X c #E4E6EA",
";X c #F6EDE7",
":X c #F5F5F7",
/* pixels */
"f.f.f.f.f.f.f.f.f.f.f.f.f.f.f.f.f.f.f.f.f.f.f.f.f.f.f.f.f.f.f.f.",
"f.f.f.f.f.f.f.f.f.f.[ R R R R R R R E a.f.f.f.f.f.f.f.f.f.f.f.f.",
"f.f.f.f.f.f.f.p.W W A.L.R.R.R.R.R.T.L.[ W W d.f.f.f.f.f.f.f.f.f.",
"f.f.f.f.f.f.{ @.I.}.+X-X:XI.L.L.-X:X-XoXT.P.W } f.f.f.f.f.f.f.f.",
"f.f.f.f.d.` [ A. X$X%X%X%XA.X.o.@X%X%X%X+X|...[ ] f.f.f.f.f.f.f.",
"f.f.f.f.a.  Q Y.#Xy.t.t.t.,.^ &.q.t.t.t.E.@XU.Q $ f.f.f.f.f.f.f.",
"f.f.f.a.] < G 4.t.t.t.t.0.w.w.w.0.q.t.t.t.r.2.G 5 ] a.f.f.f.f.f.",
"f.f.f.c X }.J.3.q.e.q.8.J ..+.+.J / 8.e.r.w.2.J.P.  x f.f.f.f.f.",
"f.f.f.c . 2.2.2.2.w.~ w w &.2.1.p w p q.9.2.2.2.&.  c f.f.f.f.f.",
"f.f.r N Y 2.2.2.2.2.G w <.T Z w ,.^ e ,.2.2.2.2.,.w w I f.f.f.f.",
"# w <.*.i   > ~ 2.2.2.1.w &.2.1.p G 2.2.2.1.n > o n *.^ w X ) f.",
"( . f n n i * % Y Y ..O.X.O.O.O.X.o.o.T Y J X * i n n 6   ` d.f.",
"d.d.O & n n i d w w V Y X.V.V.V.V...Y e w w i i n i & 7 i.d.f.f.",
"f.f.c k & a a ! :.Y.#.N H H H H H D F Y.K.;.s a t & k ' f.f.f.f.",
"f.g.= - 6 f f -.`.;X$.X Q.(.(.(.(.j.% -X&X).v f d 4 - z f.f.f.f.",
"f.f.h 5 2 , y / K.#XK./ '.{.{.{.{.~.| $X_.l.n y > 2 5 c f.f.f.f.",
"f.f.f.' h h 8 * % 5.W.^.]./.^./.'.`.^.z.7.S > + X h ' f.f.f.f.f.",
"f.f.f.f.f.d.z O   s -.h.!.c.k.c.Q.W.>.m T v.@ % : ] i.f.f.f.f.f.",
"f.f.f.f.f.f.p.b + N.C # # u g | 3 1 1 9 C A / 6.>.  x f.f.f.f.f.",
"f.f.f.f.f.s._ n n Z.K w w w F }.C.m.v.@   o x.x.>.  c f.f.f.f.f.",
"f.f.f.f.s.n z.{.{.#.N w M.V e e b.L M B.L       $ f.f.f.f.f.f.f.",
"f.f.f.f.s.n z.'.[.u 2 w S..X*XOXF w e b.M.v.. j f.f.f.f.f.f.f.f.",
"f.f.f.f.f.g.j     4 n.F.*XU w e  X}.m.e K F.H.D.n.f.f.f.f.f.f.f.",
"f.f.f.f.f.f.f.f.f.P q q X.V.V.V.X. .w X.L.=XG.L $ f.f.f.f.f.f.f.",
"f.f.f.f.f.f.f.f.f.5 X X N D D D V N w < B A.XX@.$ f.f.f.f.f.f.f.",
"f.f.f.f.f.f.f.f.f.= > y f + X X 0 w w . . @ 5 x ] f.f.f.f.f.f.f.",
"f.f.f.f.f.f.f.f.f.c 8 & & l z 2 w 0 % z z z x ` f.d.d.d.f.f.f.f.",
"f.f.f.f.f.f.f.f.f.f.] ) ) a.u.# B F ! ; z d.f.f.f.f.d.d.f.f.f.f.",
"f.f.f.f.f.f.f.f.f.f.f.f.f.f.] . U ^ 1.X 7 d.f.f.f.f.f.f.f.f.f.f.",
"f.f.f.f.f.f.f.f.f.f.f.f.f.f.i.; %.=.=.; z d.f.f.f.f.f.f.f.f.f.f.",
"f.f.f.f.f.f.f.f.f.f.f.f.f.f.f.a.= O $ i.f.f.f.f.f.f.f.f.f.f.f.f.",
"f.f.f.f.f.f.f.f.f.f.f.f.f.f.f.f.d.f.d.f.f.f.f.f.f.f.f.f.f.f.f.f."
};
