/* XPM */
static char *b4dabf62b2574b4bedec3eda4c6af0a0ZvTaS4jwwIwl3BVK[] = {
/* columns rows colors chars-per-pixel */
"32 32 180 2 ",
"   c #020202",
".  c #060906",
"X  c #0B090A",
"o  c #120C0A",
"O  c #19120D",
"+  c #130E13",
"@  c #1A0F12",
"#  c #161017",
"$  c #111A11",
"%  c #1A141C",
"&  c #2F1F17",
"*  c #231818",
"=  c #1A2B1A",
"-  c #2E261B",
";  c #32231A",
":  c #392A1F",
">  c #1C1D24",
",  c #251922",
"<  c #19273A",
"1  c #252724",
"2  c #362026",
"3  c #3F2A27",
"4  c #293927",
"5  c #332436",
"6  c #3D2B37",
"7  c #342739",
"8  c #382738",
"9  c #362839",
"0  c #3A2B3A",
"q  c #373537",
"w  c #3D3C3D",
"e  c #452E23",
"r  c #54382B",
"t  c #5D3E2E",
"y  c #472D39",
"u  c #502F38",
"i  c #4C3435",
"p  c #453A34",
"a  c #5C3E31",
"s  c #583838",
"d  c #2A422A",
"f  c #2E4B2E",
"g  c #2E4831",
"h  c #324D31",
"j  c #3B4E35",
"k  c #345534",
"l  c #3A5635",
"z  c #3A5C3A",
"x  c #3C613C",
"c  c #5F402F",
"v  c #5F4030",
"b  c #57583F",
"n  c #63422F",
"m  c #614030",
"M  c #694A3A",
"N  c #1D2645",
"B  c #282640",
"V  c #3B2E41",
"C  c #353347",
"Z  c #3D3145",
"A  c #203159",
"S  c #3F3E56",
"D  c #383C58",
"F  c #353962",
"G  c #323F73",
"H  c #453547",
"J  c #503444",
"K  c #403D53",
"L  c #3D4364",
"P  c #284072",
"I  c #335070",
"U  c #434B43",
"Y  c #5E4B4A",
"T  c #475849",
"R  c #404158",
"E  c #4E4458",
"W  c #5B4B58",
"Q  c #47515A",
"!  c #6E4443",
"~  c #6F5043",
"^  c #6D564E",
"/  c #71524D",
"(  c #6C4C5F",
")  c #734556",
"_  c #7E4C5D",
"`  c #6B5550",
"'  c #735F51",
"]  c #466646",
"[  c #426B42",
"{  c #5D6643",
"}  c #457045",
"|  c #4C7C4C",
" . c #517A54",
".. c #494562",
"X. c #5A4B65",
"o. c #404D71",
"O. c #515074",
"+. c #55567D",
"@. c #58587F",
"#. c #785063",
"$. c #61587D",
"%. c #6B6B6F",
"&. c #786B6A",
"*. c #65697A",
"=. c #66707F",
"-. c #8D505F",
";. c #965153",
":. c #946B51",
">. c #885466",
",. c #985864",
"<. c #985868",
"1. c #A45B69",
"2. c #C55B5E",
"3. c #CC6268",
"4. c #D5656A",
"5. c #E96868",
"6. c #F16C6B",
"7. c #4F814F",
"8. c #538453",
"9. c #558C56",
"0. c #588A55",
"q. c #588F58",
"w. c #589058",
"e. c #978F61",
"r. c #BD8A69",
"t. c #C9946E",
"y. c #D0976C",
"u. c #D09971",
"i. c #D9A37C",
"p. c #364988",
"a. c #2F578C",
"s. c #3966A7",
"d. c #575780",
"f. c #595880",
"g. c #5F6189",
"h. c #687181",
"j. c #6C728B",
"k. c #74788B",
"l. c #4070B1",
"z. c #4477B9",
"x. c #4078C0",
"c. c #4A7EC2",
"v. c #857D81",
"b. c #7A81A3",
"n. c #70A0E0",
"m. c #9C9698",
"M. c #BCA18F",
"N. c #8892AB",
"B. c #929DB3",
"V. c #9D9DB4",
"C. c #A28FA4",
"Z. c #AF96A7",
"A. c #95A3BC",
"S. c #A0A0B6",
"D. c #DCAF92",
"F. c #CD9FA3",
"G. c #DEBAA7",
"H. c #DEAEB2",
"J. c #F2B9B9",
"K. c #DEC2AB",
"L. c #ECC0A3",
"P. c #EACAB5",
"I. c #F8D2BB",
"U. c #9AABC6",
"Y. c #9CB1CE",
"T. c #A4B1C7",
"R. c #A4B3CB",
"E. c #A9B9D0",
"W. c #B5C3D7",
"Q. c #B6C6DA",
"!. c #CDCFD5",
"~. c #C1CDDE",
"^. c #D3D3D8",
"/. c #E5D8DB",
"(. c #CBD9E9",
"). c #D0DCE9",
"_. c #D6E1ED",
"`. c #EDEDF0",
"'. c gray97",
"]. c #F8F8F8",
/* pixels */
"w.w.w.w.w.w.w.w.w.w.w.w.w.w.w.w.w.w.w.w.w.w.w.w.w.w.w.w.w.w.w.w.",
"w.w.w.w.w.w.w.w.w.w.w.w.w.w.w.w.w.w.w.w.w.w.w.w.w.w.w.w.w.w.w.w.",
"w.w.w.w.w.w.w.w.w.w.w.w.U 8 8 8 Z R R R q.w.w.w.w.w.w.w.w.w.w.w.",
"w.w.w.w.w.w.w.w.w.8.w w ;.2.2.2.F.^.!.B.Q Q  .w.w.w.w.w.w.w.w.w.",
"w.w.w.w.w.w.w.w. .y 6.5.5.5.5.d.+.V.].].].~.j.R w.w.w.w.w.w.w.w.",
"w.w.w.w.w.w.w.k 1 -.5.5.5.5.5.f.f.S.].].].).T.N.= w.w.w.w.w.w.w.",
"w.w.w.w.w.w.w.4 @ 1.5.5.5.5.5.4.H.`.].].]._.Q.U.. w.w.w.w.w.w.w.",
"w.w.w.w.w.w.= C +.$.<.4.5.5.5.5.J.].].].].~.E.R.O.  h w.w.w.w.w.",
"w.w.w.q.0 0 + s >.V f.>.3.5.5.5.J.].].'.(.W.b.@.0 t i T w.w.w.w.",
"w.w.T w O.O.S H J _ Z _ 1.1.1.1.Z.W.W.W.E.E.*.H B.O h 8.w.w.w.w.",
"w.U ..f.f.f...#.,.r 8 _ <.<.<.<.C.E.E.E.E.E.b.g.R.0 % d w.w.w.w.",
"w.U ..f.f.f.O.X.W i ) >.<.<.<.<.C.E.E.E.E.E.A.N.&.+ 4 } w.w.w.w.",
"w.8.T Z @.f.f.+.O.K E >.<.<.<.<.C.E.E.E.E.E.v.^ t r - h w.w.w.w.",
"w.w.8. .Z Z Z Z Z 0 0 , m./.M J Y ^ ` E ^ ^ M m m m ! i $ 9.w.w.",
"w.w.w.w.8.8.8.b ~ G.G.p m.].t.0 0 i v a 6 r m m t X o 4 | q.w.w.",
"w.w.w.w.w.w.w.e.u.I.I.K.P.I.u.r./ 0 6 6 a a ; o O 8.7.8.w.w.w.w.",
"w.w.w.w.w.w.w.q.8.n y.L.D.y.5 5 i n n c   e m a . w.w.w.w.w.w.w.",
"w.w.w.w.w.w.w.w.0.{ M ' :.:.% 8 y 3 & &   * & ; k w.w.w.w.w.w.w.",
"w.w.w.w.w.w.w.w.w.q.| | 8.0.  p.p.F 7 p.r O f 7.w.w.w.w.w.w.w.w.",
"w.w.w.w.w.w.w.w.w.w.q.q.z d I s.P B 9 N :.; k w.w.w.w.w.w.w.w.w.",
"w.w.w.w.w.w.w.w.w.8.= = P a.n.< A G G   : l 7.w.w.w.w.w.w.w.w.w.",
"w.w.w.w.w.w.w.w.7.4 M.W L o.< C D L L C [ 8.w.w.w.w.w.w.w.w.w.w.",
"w.w.w.w.w.w.w.w.| O i.D.Y X s.l.l.l.z.A.$ [ w.w.w.w.w.w.w.w.w.w.",
"w.w.w.w.w.w.w.w.8.k M ' %.*.z.x.x.x.c.R.. [ w.w.w.w.w.w.w.w.w.w.",
"w.w.w.w.w.w.w.w.w.q.7.w 1 > Y.Y.Y.Y.U.H   [ w.w.w.w.w.w.w.w.w.w.",
"w.w.w.w.w.w.w.w.w.9.l q , # =.h.h.k.k.9 > g | w.w.w.w.w.w.w.w.w.",
"w.w.w.w.w.w.w.w.w.9.x 1 + +   z x ] ] # S % k w.w.w.w.w.w.w.w.w.",
"w.w.w.w.w.w.w.w.w.w.w.x f f f q.w.[ d u ( * k w.w.w.w.w.w.w.w.w.",
"w.w.w.w.w.w.w.w.w.w.w.w.w.w.w.w.w.| z 2 2 j | w.w.w.w.w.w.w.w.w.",
"w.w.w.w.w.w.w.w.w.w.w.w.w.w.w.w.w.w.9.f f | w.w.w.w.w.w.w.w.w.w.",
"w.w.w.w.w.w.w.w.w.w.w.w.w.w.w.w.w.w.w.w.w.w.w.w.w.w.w.w.w.w.w.w.",
"w.w.w.w.w.w.w.w.w.w.w.w.w.w.w.w.w.w.w.w.w.w.w.w.w.w.w.w.w.w.w.w."
};
