/* XPM */
static char *_fb0f005e3da4d76a63c12c0be1a1323IkplmFSPvkKDhbJ2[] = {
/* columns rows colors chars-per-pixel */
"32 32 180 2 ",
"   c #020302",
".  c #070707",
"X  c #0B0A07",
"o  c #0F0B09",
"O  c #100A08",
"+  c #0D160D",
"@  c #17100C",
"#  c #121212",
"$  c #1F1513",
"%  c #141A16",
"&  c #25171A",
"*  c #152315",
"=  c #16241C",
"-  c #192719",
";  c #1A2B1A",
":  c #26221C",
">  c #37291E",
",  c #0D1220",
"<  c #1B1C27",
"1  c #211721",
"2  c #2A1F2B",
"3  c #2C2828",
"4  c #253C25",
"5  c #333627",
"6  c #292E33",
"7  c #352536",
"8  c #382736",
"9  c #362639",
"0  c #392939",
"q  c #2B3036",
"w  c #3D373D",
"e  c #3F3F3F",
"r  c #452E22",
"t  c #493027",
"y  c #55382B",
"u  c #5D3E2E",
"i  c #422E36",
"p  c #4A3335",
"a  c #473438",
"s  c #583836",
"d  c #2A452A",
"f  c #345534",
"g  c #3E623C",
"h  c #5F402F",
"j  c #55483B",
"k  c #614130",
"l  c #68483A",
"z  c #192444",
"x  c #283F40",
"c  c #323244",
"v  c #3D3246",
"b  c #3C354A",
"n  c #212E57",
"m  c #273E5C",
"M  c #3E3C53",
"N  c #283767",
"B  c #4D3745",
"V  c #463E53",
"C  c #643E4D",
"Z  c #6D3F4A",
"A  c #27456B",
"S  c #33486A",
"D  c #404340",
"F  c #424842",
"G  c #42494D",
"H  c #5E484D",
"J  c #465345",
"K  c #4A5E49",
"L  c #42405B",
"P  c #455158",
"I  c #5E5355",
"U  c #65444B",
"Y  c #75454D",
"T  c #7F5841",
"R  c #634A5F",
"E  c #78495A",
"W  c #7D5B52",
"Q  c #725B5F",
"!  c #416640",
"~  c #426D42",
"^  c #4B644B",
"/  c #5A6140",
"(  c #457145",
")  c #4C764C",
"_  c #4E7F4E",
"`  c #4D6C58",
"'  c #506B5C",
"]  c #517A52",
"[  c #464563",
"{  c #4C4B64",
"}  c #4D4A6B",
"|  c #574C69",
" . c #4F4F70",
".. c #534F73",
"X. c #555579",
"o. c #56567C",
"O. c #6A6E7C",
"+. c #617277",
"@. c #7D7278",
"#. c #87454E",
"$. c #8E474F",
"%. c #824C5A",
"&. c #924950",
"*. c #8D545D",
"=. c #90694D",
"-. c #8A5160",
";. c #985867",
":. c #975868",
">. c #995969",
",. c #835D79",
"<. c #925F76",
"1. c #AB5C68",
"2. c #87757E",
"3. c #B76370",
"4. c #E76868",
"5. c #E86868",
"6. c #F06A6A",
"7. c #528652",
"8. c #568C56",
"9. c #588956",
"0. c #588F58",
"q. c #579057",
"w. c #589058",
"e. c #B8986C",
"r. c #B5917D",
"t. c #CD956E",
"y. c #D39A70",
"u. c #D89E73",
"i. c #374A89",
"p. c #2D5588",
"a. c #384D93",
"s. c #385096",
"d. c #335F96",
"f. c #3B5CA5",
"g. c #3F76BC",
"h. c #585981",
"j. c #6F6789",
"k. c #71788F",
"l. c #6C6F94",
"z. c #767894",
"x. c #4B73A9",
"c. c #4078C0",
"v. c #937F8F",
"b. c #A97480",
"n. c #5980B4",
"m. c #6089C6",
"M. c #709FDF",
"N. c #8E8F9F",
"B. c #A78A9E",
"V. c #838BA0",
"C. c #9292A0",
"Z. c #8993B1",
"A. c #949FB6",
"S. c #A28FA3",
"D. c #B499A9",
"F. c #9CA3B2",
"G. c #96A1B9",
"H. c #ABABBF",
"J. c #ECBC9D",
"K. c #E1BDA8",
"L. c #F1BABA",
"P. c #EDC3A3",
"I. c #F3CCB4",
"U. c #F8D1B8",
"Y. c #FAD4BC",
"T. c #A6B6CE",
"R. c #A8B8CF",
"E. c #B6BBC7",
"W. c #A8B8D0",
"Q. c #B6C3D7",
"!. c #BBC7D9",
"~. c #C3D3E5",
"^. c #C6D6E8",
"/. c #D0D8E4",
"(. c #E5E9EE",
"). c #E2EAF1",
"_. c #EDF0F4",
"`. c #F7F7F7",
"'. c #F8F7F6",
"]. c #F8F8F8",
/* pixels */
"w.w.w.w.w.w.w.w.w.w.w.0.0.0.0.0.0.0.w.w.w.w.w.w.w.w.w.w.w.w.w.w.",
"w.w.w.w.w.w.w.w.w.w.` P P P G e e e 8.w.w.w.w.w.w.w.w.w.w.w.w.w.",
"w.w.w.w.w.w.w.0.` ` +.k.C.C.2.#.#.#.K ^ K w.w.w.w.w.w.w.w.w.w.w.",
"w.w.w.w.w.w.9.' k.N.E./.].H.B.3.4.5.&.$.$.K ) w.w.w.w.w.w.w.w.w.",
"w.w.w.w.w.8.] { T.(.].].`.h.h.,.4.5.5.5.6.0 J 8.w.w.w.w.w.w.w.w.",
"w.w.w.w.w.; 6 R.^._.].].`.l.j.<.4.5.5.5.5.>.s - w.w.w.w.w.w.w.w.",
"w.w.w.w.8.; q W.^._.].].].`.L.4.5.5.5.5.5.:.s - 8.w.w.w.w.w.w.w.",
"w.w.0.0.% L l.T.T.(.].].].].L.5.5.5.4.5.:.o.h.[   _ 0.8.w.w.w.w.",
"w.w.] 9 u i v h.T.~.).].].].L.5.5.5.>.;.h.8 C Y   7 9 D 0.w.w.w.",
"w.w.8.] : O.z.V T.W.Q.!.!.!.D.1.1.1.>.>.v %.C B c }  .{ F 0.w.w.",
"w.w.) + 3 V.G.o.T.W.W.W.W.W.S.>.>.>.>.>.9 l Y E L o.h.o...w ] w.",
"w.w.7.f % I 2.Z.T.W.W.W.W.W.S.>.>.>.>.>.Y p B |  .o.h.h.X.0 ] w.",
"w.w._ 4 > y l @.T.W.W.W.W.W.S.>.>.>.>.>.R b L ..h.h.o...V ^ 9.w.",
"w.7.! $ y k k l F.F.G.A.F.F.v.-.*.b.%.%.M M [ ........{ D 0.w.w.",
"w.~ 5 Z t y k k k s p i k s p a T '.#   Q Q H a F F F K 0.w.w.w.",
"w.w.(     r k k k i p k k 0 9 U t.].#   U.I.r.j w.w.w.w.w.w.w.w.",
"w.w.w.w.w.;   . u k p 9 9 9 W u.u.U.Y.Y.U.Y.J.e.w.w.w.w.w.w.w.w.",
"w.w.w.w.w.; @ u u @ > h h k p 9 7 t.I.U.y.u / q.w.w.w.w.w.w.w.w.",
"w.w.w.w.w.7.g o o   . o O 0 0 2 . l : : $ 9.9.w.w.w.w.w.w.w.w.w.",
"w.w.w.w.w.w.8._   t [ i.9 a.a.N   8.7.7.7.w.w.w.w.w.w.w.w.w.w.w.",
"w.w.w.w.w.w.w.7.  =.j , 0 , S m.n.* 7.w.w.w.w.w.w.w.w.w.w.w.w.w.",
"w.w.w.w.w.w.w.8.( 5 @   i.d.A S M.d.= * % w.w.w.w.w.w.w.w.w.w.w.",
"w.w.w.w.w.w.w.w.w.d +   f.c.p.m x.x.< # j ( _ w.w.w.w.w.w.w.w.w.",
"w.w.w.w.w.w.w.w.w.~ x z c.c.c.p.  b @.@.P.. 4 w.w.w.w.w.w.w.w.w.",
"w.w.w.w.w.w.w.w.w.- n s.g.c.c.p.. 9 K.I.y.X d w.w.w.w.w.w.w.w.w.",
"w.w.w.w.w.w.w.w.w.- 1 0 s.g.g.g.g.9 .     w.w.w.w.w.w.w.w.w.w.w.",
"w.w.w.w.w.w.w.w.8.- 1 0 0 9 9 9 0   7 7 8.w.w.w.w.w.w.w.w.w.w.w.",
"w.w.w.w.w.w.w.7.. c v 9 0         7 9 0 . w.w.w.w.w.w.w.w.w.w.w.",
"w.w.w.w.w.w.w.7.  c < . w.w.w.!         w.w.w.w.w.w.w.w.w.w.w.w.",
"w.w.w.w.w.w.w.7.  U E Y - 0.w.7.( ( ( ~ w.w.w.w.w.w.w.w.w.w.w.w.",
"w.w.w.w.w.w.w.8.( 5 & & ( w.w.w.w.0.w.w.w.w.w.w.w.w.w.w.w.w.w.w.",
"w.w.w.w.w.w.w.w.w.f 4 4 w.w.w.w.w.0.w.w.w.w.w.w.w.w.w.w.w.w.w.w."
};
