/* XPM */
static char *a6cf07e3a087438cb4e77c08011ba458cyTyzOOnG0MVNbv8[] = {
/* columns rows colors chars-per-pixel */
"32 32 182 2 ",
"   c None",
".  c #5D4021",
"X  c #654523",
"o  c #664827",
"O  c #694D29",
"+  c #6C502C",
"@  c #6E5934",
"#  c #414D56",
"$  c #5C7551",
"%  c #537C55",
"&  c #587E55",
"*  c #777D4F",
"=  c #405467",
"-  c #836A3D",
";  c #817449",
":  c #927F4E",
">  c #558556",
",  c #5A8657",
"<  c #538658",
"1  c #568D59",
"2  c #5A8D5A",
"3  c #5B8B57",
"4  c #589058",
"5  c #648A57",
"6  c #6A8659",
"7  c #658C5A",
"8  c #6A8558",
"9  c #758453",
"0  c #7C8B5B",
"q  c #788A5C",
"w  c #77935D",
"e  c #5E8865",
"r  c #5F9060",
"t  c #668A66",
"y  c #649465",
"u  c #6A966C",
"i  c #7E956C",
"p  c #799464",
"a  c #678C75",
"s  c #689176",
"d  c #78927F",
"f  c #7B9C7E",
"g  c #749B75",
"h  c #93814F",
"j  c #948D5A",
"k  c #82935C",
"l  c #8C9154",
"z  c #9C955B",
"x  c #939858",
"c  c #AE9347",
"v  c #B29A4F",
"b  c #AC9B5A",
"n  c #A69858",
"m  c #B19B5C",
"M  c #B7A65C",
"N  c #889662",
"B  c #879776",
"V  c #82947E",
"C  c #A79B64",
"Z  c #9CA364",
"A  c #97A16D",
"S  c #99A979",
"D  c #BAA46A",
"F  c #B6AA66",
"G  c #A8AD76",
"H  c #B1AA70",
"J  c #C9A74D",
"K  c #D2AE51",
"L  c #CEB15A",
"P  c #D4B154",
"I  c #DAB555",
"U  c #DFB856",
"Y  c #D3B35A",
"T  c #DDB95C",
"R  c #E6BE57",
"E  c #E9BF58",
"W  c #E3BC59",
"Q  c #CCB764",
"!  c #C8B869",
"~  c #D8B860",
"^  c #C9BD77",
"/  c #EDC45A",
"(  c #E5C05D",
")  c #F1C75C",
"_  c #F3C95E",
"`  c #CBC27F",
"'  c #DBC67D",
"]  c #DFD57B",
"[  c #ECC765",
"{  c #E7C66A",
"}  c #F6CC62",
"|  c #F6CD68",
" . c #FCD267",
".. c #FCD169",
"X. c #FFDA6F",
"o. c #E9CC76",
"O. c #FDDB71",
"+. c #FDE274",
"@. c #F8E579",
"#. c #687B8D",
"$. c #779A87",
"%. c #7F9F8D",
"&. c #7D9B81",
"*. c #898D8A",
"=. c #819F92",
"-. c #A79B81",
";. c #88A38D",
":. c #96A487",
">. c #8FA792",
",. c #8BA19B",
"<. c #90A297",
"1. c #96AC9B",
"2. c #9DB19E",
"3. c #A6A887",
"4. c #B4AC80",
"5. c #AEB383",
"6. c #B2B784",
"7. c #A6A193",
"8. c #B2AD97",
"9. c #93A9A6",
"0. c #9BAFAF",
"q. c #9DA8A5",
"w. c #94A1B3",
"e. c #ADA6A0",
"r. c #B5ADA7",
"t. c #A2B2A6",
"y. c #A4B3AA",
"u. c #ACBAB6",
"i. c #ABB6B5",
"p. c #B1BDBA",
"a. c #BEBBBB",
"s. c #BAB9B7",
"d. c #C4BB99",
"f. c #C3BEB2",
"g. c #B9C2B8",
"h. c #DDCF87",
"j. c #D7CB89",
"k. c #DBD18A",
"l. c #CDCA96",
"z. c #D2CD92",
"x. c #DBDA94",
"c. c #E4D585",
"v. c #F4E788",
"b. c #F6E980",
"n. c #E1E097",
"m. c #EEE993",
"M. c #F6E797",
"N. c #FDFD92",
"B. c #F2F09D",
"V. c #F6F593",
"C. c #C0C1AC",
"Z. c #D0CCA3",
"A. c #D9D7A6",
"S. c #CDC7B7",
"D. c #C5C0B0",
"F. c #D7D6BD",
"G. c #E2D6A8",
"H. c #EADEB6",
"J. c #E6E5A2",
"K. c #F3E7A8",
"L. c #F2E8BD",
"P. c #F3F0B5",
"I. c #B3BDC3",
"U. c #C5C5C4",
"Y. c #CAC6C7",
"T. c #CBD2CC",
"R. c #D6D4C7",
"E. c #C6CED0",
"W. c #C8D3D3",
"Q. c #D4D3D3",
"!. c #DCDBDB",
"~. c #D8DCD7",
"^. c #E0DFDF",
"/. c #DFE3DF",
"(. c #E6E2D7",
"). c #E3E3E3",
"_. c #E7E8E7",
"`. c #EDEDEB",
"'. c #F9F7EB",
"]. c #EEEFF0",
"[. c #F5F4F4",
"{. c #F9F7F1",
/* pixels */
"4 4 4 4 4 4 4 4 4 4 4 4 4 4 4 4 4 4 4 4 4 4 4 4 4 4 4 4 4 4 4 4 ",
"4 4 4 4 4 4 4 4 4 4 4 4 4 4 4 4 4 4 4 4 4 4 4 4 4 4 4 4 4 4 4 4 ",
"4 4 4 4 4 4 4 4 4 4 4 4 4 4 4 4 4 4 4 4 4 4 4 4 4 4 4 4 4 4 4 4 ",
"4 4 4 4 4 4 4 4 4 4 4 4 4 4 4 4 4 4 4 4 4 4 4 4 4 4 4 4 4 4 4 4 ",
"4 4 4 4 4 4 4 4 4 4 4 4 4 4 4 4 4 4 4 4 4 4 4 4 4 4 4 4 4 4 4 4 ",
"4 4 4 4 4 4 4 4 4 4 4 4 4 4 4 4 4 4 4 4 4 4 4 4 4 4 4 4 4 4 4 4 ",
"4 4 4 4 4 4 1 < < 4 4 4 4 4 4 4 4 4 4 4 4 4 4 4 4 4 4 4 4 4 4 4 ",
"4 4 4 4 4 4 1 & & 1 4 4 4 4 4 4 4 1 4 4 4 4 4 4 4 4 4 4 4 4 4 4 ",
"4 4 4 4 4 4 4 , V <.a 1 1 4 4 1 s a 2 4 4 4 4 4 4 4 4 4 4 4 4 4 ",
"4 4 4 4 4 4 4 > :.(.].E.0.,.9.W.[.g 4 4 4 4 4 4 4 4 4 4 4 4 4 4 ",
"4 4 4 4 4 4 4 1 i D._.).[.[.`.[.!.y 4 4 4 4 4 4 4 4 4 4 4 4 4 4 ",
"4 4 4 4 4 4 4 4 w 8.!.~._.).)._.g.y 4 4 4 4 4 4 4 4 4 4 4 4 4 4 ",
"4 4 4 4 4 4 4 4 7 :.R.~.).).)._.f 4 4 4 4 4 4 4 4 4 4 1 < 1 4 4 ",
"4 4 4 4 4 4 4 4 , B S.^.^.!.).~.y 4 4 4 4 4 4 1 1 t =.i.p.;.4 4 ",
"4 4 4 4 4 4 4 4 , i d.!.~.!.).2.4 4 4 4 4 2 s 9.p.t.f y 2 4 4 4 ",
"4 4 4 4 4 4 4 4 1 p d.~.Q.~./.u 4 4 4 1 $.i.y.f r 2 4 4 4 4 4 4 ",
"4 4 4 4 4 4 4 4 1 w 4.U.Q.Q.T.1 4 1 =.p.<.y 2 4 4 4 4 4 4 4 4 4 ",
"4 4 4 4 4 4 4 4 1 8 z D 8.a.C.A t u.q.u 4 4 4 4 4 4 4 4 4 4 4 4 ",
"4 4 4 4 4 4 2 k ! +.b.] Q ^ x.J.R.j.F 8 , 4 4 4 4 4 4 4 4 4 4 4 ",
"4 4 4 4 4 1 Z o.M.K.B.N.N.V.A.R.c.O. .Y j 5 4 4 4 4 4 4 4 4 4 4 ",
"4 4 4 4 1 w ` H.`.'.P.N.B.F.Z.@.+...W E ( x 3 2 4 4 4 4 4 4 4 4 ",
"4 4 4 1 q F G.'.{.L.v.m.Z.k.+.O. ./ U / ) Q N 2 2 4 4 4 4 4 4 4 ",
"4 1 0 z b ~ { ' o.O.+.+.+.X..._ / K R / _ n M n 7 1 4 4 4 4 4 4 ",
"1 8 5 5 n T / / _ } | [ [ } ) / P / U / I 0 % 9 * & 4 4 4 4 4 4 ",
"4 4 2 Z k M / / { h.z.l.A.j.Y I / / R I b m b 0 $ $ > 4 4 4 4 4 ",
"4 4 t 7 2 k L [ ' C O o : x.k./ / / K D r.r.e.-.j 9 > 4 4 4 4 4 ",
"4 4 4 4 4 > l ! ^ h X X - ^ B.P I J m f.Y.Y.a.a.s.7.q > 4 4 4 4 ",
"4 4 4 4 4 4 > 8 G H @ . + n n.v c ; # =   q.i.U.g.;.t % 4 4 4 4 ",
"4 4 4 4 4 4 4 1 2 p S 5.5.6.3.*.#.        w.I.1.y 4 4 4 4 4 4 4 ",
"4 4 4 4 4 4 4 4 4 4 2 1 1 , e d <.t.y.y.1.&.y 2 4 4 4 4 4 4 4 4 ",
"4 4 4 4 4 4 4 4 4 4 4 4 4 4 4 4 4 4 4 4 4 4 4 4 4 2 2 4 4 4 4 4 ",
"4 4 4 4 4 4 4 4 4 4 4 4 4 4 4 4 4 4 4 4 4 4 4 4 2 2 2 4 4 4 4 4 "
};
