/* XPM */
static char *_f0eec30b7d64b7ac57aee374cbcd1d6Mui3o2ZBeceINuKK[] = {
/* columns rows colors chars-per-pixel */
"32 32 170 2 ",
"   c #583C1F",
".  c #644222",
"X  c #6B4E29",
"o  c #65583C",
"O  c #5B6E3E",
"+  c #6A623B",
"@  c #7C6134",
"#  c #143854",
"$  c #273C47",
"%  c #25404D",
"&  c #334540",
"*  c #254050",
"=  c #3D4F5A",
"-  c #39515D",
";  c #3E6B58",
":  c #454D58",
">  c #4A5B51",
",  c #566D4F",
"<  c #526D54",
"1  c #407057",
"2  c #497C56",
"3  c #487C5A",
"4  c #57735C",
"5  c #5C775D",
"6  c #666455",
"7  c #667855",
"8  c #7D7154",
"9  c #4C626D",
"0  c #4A7566",
"q  c #636C63",
"w  c #7C7A79",
"e  c #846B37",
"r  c #9F7E46",
"t  c #827C5B",
"y  c #817A66",
"u  c #4D8258",
"i  c #5C8552",
"p  c #558856",
"a  c #568D57",
"s  c #53845C",
"d  c #568D58",
"f  c #588F58",
"g  c #589058",
"h  c #648F5B",
"j  c #689257",
"k  c #719059",
"l  c #739A5D",
"z  c #609560",
"x  c #6B986B",
"c  c #7A9F60",
"v  c #678B7B",
"b  c #74A274",
"n  c #A1873F",
"m  c #8A875B",
"M  c #968C53",
"N  c #899E5E",
"B  c #A8974F",
"V  c #B89E4F",
"C  c #A49158",
"Z  c #BA9F51",
"A  c #9BA05A",
"S  c #BDA152",
"D  c #978F6D",
"F  c #94A469",
"G  c #BBAC67",
"H  c #BBAD6D",
"J  c #A3A572",
"K  c #BFB578",
"L  c #C1A24A",
"P  c #C6A95D",
"I  c #D0AD52",
"U  c #D9B454",
"Y  c #DBBC5B",
"T  c #E6BE58",
"R  c #E5BD5A",
"E  c #C5AC63",
"W  c #C6AF6C",
"Q  c #C7B365",
"!  c #CEBC6F",
"~  c #D1B560",
"^  c #D7B866",
"/  c #C2B174",
"(  c #EDC35A",
")  c #F3C65A",
"_  c #F3C95E",
"`  c #C8CB77",
"'  c #CBC27A",
"]  c #DACA7E",
"[  c #E9C867",
"{  c #F3CA62",
"}  c #FDCF66",
"|  c #FCCF68",
" . c #F7D26A",
".. c #FDD369",
"X. c #FFD86E",
"o. c #F2DA7A",
"O. c #FEDF79",
"+. c #FFE272",
"@. c #FFE378",
"#. c #FFE87B",
"$. c #5A6C85",
"%. c #637087",
"&. c #727A81",
"*. c #7A9D89",
"=. c #7F9199",
"-. c #7DA386",
";. c #8A8A8B",
":. c #9C9589",
">. c #89999D",
",. c #87AD89",
"<. c #8BB18A",
"1. c #96B498",
"2. c #98B898",
"3. c #B4A88F",
"4. c #A5A19D",
"5. c #959CAA",
"6. c #ADA9A9",
"7. c #A1BAA5",
"8. c #AAB6AF",
"9. c #B5B0A8",
"0. c #BEBBBC",
"q. c #B2C684",
"w. c #A6C1A6",
"e. c #C5C386",
"r. c #C8C386",
"t. c #DCDD8C",
"y. c #D6D292",
"u. c #DADA95",
"i. c #E0CD89",
"p. c #E4D481",
"a. c #FBDB86",
"s. c #E3DB99",
"d. c #FAE78E",
"f. c #FFF082",
"g. c #FEFA8E",
"h. c #ECE49C",
"j. c #FCF691",
"k. c #FFFF94",
"l. c #FEFB9C",
"z. c #C5C3B5",
"x. c #D4CCB9",
"c. c #D4D5B3",
"v. c #E8EFA1",
"b. c #EFEDA8",
"n. c #F7EEA4",
"m. c #F8EBB3",
"M. c #FFFFB2",
"N. c #A9B4C1",
"B. c #B7BFCA",
"V. c #C2BEC0",
"C. c #C5C1C1",
"Z. c #CDCACC",
"A. c #C3D4C3",
"S. c #D4D3D2",
"D. c #D5DCD5",
"F. c #DEDED7",
"G. c #DCDBDB",
"H. c #DCE4DC",
"J. c #FFFACF",
"K. c #E8E5DD",
"L. c #DFE3E5",
"P. c #E1E1E1",
"I. c #E6EDE6",
"U. c #E2E6E8",
"Y. c #ECEBEA",
"T. c #F0EDED",
"R. c #F6F4EA",
"E. c #F5F4F4",
"W. c #F7F8F8",
"Q. c #FBFBFB",
/* pixels */
"g g g g g g g g g g g g g g g g g g g g g g g g g g g g g g g g ",
"g g g g g g g g g g g g g g g g g g g g g g g g g g g g g g g g ",
"g g g g g g g g g g g g g g g g g g g g g g g g g g g g g g g g ",
"g g g g g g g g g g g g g g g g g g g g g g g g g g g g g g g g ",
"g g g g g g g g g g g g g g g g g g g g g g g g g g g g g g g g ",
"g g g g g g g g g g v.g g g g g g g g g g g g g g g g g g g g g ",
"g g g g g g g g g g Q U.*.b s 2 u b x f g g g g g g g g g g g g ",
"g g g g g g g g g g ~ Q.Q.W.B.5.N.Q.7.f g g g g g g g g g g g g ",
"g g g g g g g g g g [ E.W.W.W.W.W.A.g g g g g g g g g g g g g g ",
"g g g g g g g g g g  .Y.W.W.Z.E.P.5 g g g g g g g g g g g g g g ",
"g g g g g g g g g g { P.W.E.T.Y.2.g g g g g g p 3 3 d g g g g g ",
"g g g g g g g g g g { S.Y.G.P.0.g g g g -.w.7.=.%.$.>.1.w.v a g ",
"g g g g g g g g g g { S.G.C.G.g g f -.D.&.g g g g g g g g 0 s g ",
"g g g g g g g g g g * Y y 4.9.g z L.,.g g g g g g g g g g g g g ",
"g g g g g g f i ` #.f.j.[ K t.n.z.D 7 u g g g g g g g g g g g g ",
"g g g g g g < / m.J.p.k.k.t.c.m.! X.[ C , g g g g g g g g g g g ",
"g g g g g g H K.Y.Q.j.k.M.F.h.#.X...T ( ~ > g g g g g g g g g g ",
"g g g g % ^ a.R.R.i.g.l.z.G +.X.| ( ( ( ) T g f g g g g g g g g ",
"g h i N Z O.( V [ +.@.@.+.X.| _ ( T T ( _ + ' 4 a g g g g g g g ",
"g h a l E } ) ) { U ! s.P { ) ( ( T ( ( T i k t 7 f g g g g g g ",
"g g c l g ..) { d.s.+ 6 b.r.Z ( ( ( ( U S Y F f O & g g g g g g ",
"g g g g g # _ o.u.e . . E u.M T ( ( I P :.6.8 [ N f g g g g g g ",
"g g g g g g A W e.@ . . r ] e.Y U L W x.Z.C.C.V.3.: 2 g g g g g ",
"g g g g g g g h q.' o   X H J n B j x b x ;.S.S.K.w 1 d g g g g ",
"g g g g g g g g g g = m y.m $ ; - q 9 u g f g <.<.g g g g g g g ",
"g g g g g g g g g g g g g g 4 8.H.H.H.I.I.I.P.1.g g g g g g g g ",
"g g g g g g g g g g g g g g g g g g g g g g g g g g g g g g g g ",
"g g g g g g g g g g g g g g g g g g g g g g g g g g g g g g g g ",
"g g g g g g g g g g g g g g g g g g g g g g g g g g g g g g g g ",
"g g g g g g g g g g g g g g g g g g g g g g g g g g g g g g g g ",
"g g g g g g g g g g g g g g g g g g g g g g g g g g g g g g g g ",
"g g g g g g g g g g g g g g g g g g g g g g g g g g g g g g g g "
};
