/* XPM */
static char *_ff37efe55034e85a33716b639c98aa0rcd5rFMZbqAD3u9b[] = {
/* columns rows colors chars-per-pixel */
"32 32 186 2 ",
"   c None",
".  c #5C4023",
"X  c #624222",
"o  c #6A4E26",
"O  c #71562C",
"+  c #725E3F",
"@  c #4E7D57",
"#  c #557453",
"$  c #527C55",
"%  c #6B7F5A",
"&  c #83714E",
"*  c #917F46",
"=  c #867650",
"-  c #8F7C51",
";  c #558357",
":  c #578A56",
">  c #5B8A57",
",  c #548758",
"<  c #568D58",
"1  c #5A8D5A",
"2  c #5D8358",
"3  c #589058",
"4  c #618456",
"5  c #698957",
"6  c #63875A",
"7  c #6E8758",
"8  c #6C8E59",
"9  c #638A5F",
"0  c #798555",
"q  c #738E5C",
"w  c #7B8D59",
"e  c #778859",
"r  c #68935D",
"t  c #7A915B",
"y  c #5C8E61",
"u  c #5F9360",
"i  c #698E68",
"p  c #768F61",
"a  c #708566",
"s  c #619263",
"d  c #689263",
"f  c #64906E",
"g  c #6B946B",
"h  c #77946F",
"j  c #7E9868",
"k  c #679075",
"l  c #6A9571",
"z  c #789A7C",
"x  c #8F8E50",
"c  c #838C58",
"v  c #978A5D",
"b  c #959A5E",
"n  c #A68F4D",
"m  c #AC914A",
"M  c #B0974E",
"N  c #BF9F4B",
"B  c #B59B51",
"V  c #BFA24E",
"C  c #BFA85B",
"Z  c #BAA158",
"A  c #848A69",
"S  c #989D60",
"D  c #9A9775",
"F  c #A89E60",
"G  c #A79D68",
"H  c #A09663",
"J  c #8CA468",
"K  c #9AAC6B",
"L  c #AEA36B",
"P  c #BAA563",
"I  c #BAAD6B",
"U  c #ACAD79",
"Y  c #B4AA73",
"T  c #B0AB7A",
"R  c #A8B074",
"E  c #B7B177",
"W  c #B8B17D",
"Q  c #C3A44E",
"!  c #C9A74E",
"~  c #CBA84E",
"^  c #C8AE5C",
"/  c #C8AA57",
"(  c #DBB656",
")  c #DFBD5F",
"_  c #DAB555",
"`  c #E2BB57",
"'  c #E8BE58",
"]  c #E5BD5A",
"[  c #C5AF62",
"{  c #C8BA6E",
"}  c #D6B964",
"|  c #C6B570",
" . c #C4B77A",
".. c #EDC55A",
"X. c #F1C65C",
"o. c #F5C95D",
"O. c #D8C777",
"+. c #D1C37C",
"@. c #EDC663",
"#. c #F0CA68",
"$. c #F7CD62",
"%. c #F5D169",
"&. c #FCD66E",
"*. c #E4CE78",
"=. c #EBDD7D",
"-. c #F4D876",
";. c #FFE578",
":. c #F9E279",
">. c #667689",
",. c #7A9A82",
"<. c #7FA489",
"1. c #839E89",
"2. c #8D9396",
"3. c #82A486",
"4. c #84A58A",
"5. c #87A88F",
"6. c #8FA98F",
"7. c #99A885",
"8. c #8EA791",
"9. c #8DAA96",
"0. c #9AA890",
"q. c #94AC9A",
"w. c #94AE97",
"e. c #9BB19C",
"r. c #AFA588",
"t. c #AEA481",
"y. c #B9AE8F",
"u. c #B5A982",
"i. c #B3AB96",
"p. c #8495A4",
"a. c #9BACA2",
"s. c #94ABA4",
"d. c #A6AAA4",
"f. c #A2B5AA",
"g. c #A5B9AD",
"h. c #A0B5A1",
"j. c #BEB8A9",
"k. c #ACBCB3",
"l. c #B8BDB5",
"z. c #C5BA9A",
"x. c #C4BBA3",
"c. c #A7C0AF",
"v. c #B7C1BF",
"b. c #B7C1B3",
"n. c #CDC884",
"m. c #D9D48C",
"M. c #D9D697",
"N. c #E7DD8C",
"B. c #EFE68D",
"V. c #E5E58F",
"C. c #F6E88D",
"Z. c #FFF284",
"A. c #FEF98E",
"S. c #E3E29A",
"D. c #EAE592",
"F. c #F3EA91",
"G. c #F5F496",
"H. c #F8F69B",
"J. c #DEDFA7",
"K. c #DAD8A9",
"L. c #C9CDBD",
"P. c #DADBBD",
"I. c #E5DBA9",
"U. c #EBEAA0",
"Y. c #F8F7A7",
"T. c #F3F1A5",
"R. c #F9ECBD",
"E. c #B9C1C7",
"W. c #BDC7C8",
"Q. c #C7CCC7",
"!. c #C4CFCA",
"~. c #CAC9C6",
"^. c #D1CCC0",
"/. c #CBD1CB",
"(. c #CFD1D1",
"). c #D4D2D3",
"_. c #D8D7D8",
"`. c #DBDBDB",
"'. c #D4DBD9",
"]. c #E0DFDE",
"[. c #E0DDD6",
"{. c #F8ECCC",
"}. c #ECEADF",
"|. c #F7F4D9",
" X c #E5E4E4",
".X c #EAEAEA",
/* pixels */
"3 3 3 3 3 3 3 3 3 3 3 3 3 3 3 3 3 3 3 3 3 3 3 3 3 3 3 3 3 3 3 3 ",
"3 3 3 3 3 3 3 3 3 3 3 3 3 3 3 3 3 3 3 3 3 3 3 3 3 3 3 3 3 3 3 3 ",
"3 3 3 3 3 3 3 3 3 3 3 3 3 3 3 3 3 3 3 3 3 3 3 3 3 3 3 3 3 3 3 3 ",
"3 3 3 3 3 3 3 3 3 3 3 3 3 3 3 3 3 3 3 3 3 3 3 3 3 3 3 3 3 3 3 3 ",
"3 3 3 3 3 3 3 3 3 3 3 3 3 3 3 3 3 3 3 3 3 3 3 3 3 3 3 3 3 3 3 3 ",
"3 3 3 3 3 3 3 3 3 3 3 3 3 3 3 3 3 3 3 3 3 3 3 3 3 3 3 3 3 3 3 3 ",
"3 3 3 3 3 3 < , 3 3 3 3 3 3 3 3 3 3 3 3 3 3 3 3 3 3 3 3 3 3 3 3 ",
"3 3 3 3 3 3 < # , 3 3 3 3 3 3 3 3 < 3 3 3 3 3 3 3 3 3 3 3 3 3 3 ",
"3 3 3 3 3 3 3 # a l 1 < 3 3 3 1 z < 3 3 3 3 3 3 < s 1 3 3 3 3 3 ",
"3 3 3 3 3 3 3 ; A !.k.9.4.<.5.c.W.> 3 3 3 3 3 3 s q.1 3 3 3 3 3 ",
"3 3 3 3 3 3 3 < % [..X(.`.'.'..X/.< 3 3 3 3 3 l f.3.3 3 3 3 3 3 ",
"3 3 3 3 3 3 3 3 $ x..X)..X X.X.Xk.3 3 3 3 3 y g.w.3 3 3 3 3 3 3 ",
"3 3 3 3 3 3 3 3 < D ].). X`. X.X6.3 3 3 3 y g.4.s 3 3 3 3 3 3 3 ",
"3 3 3 3 3 3 3 3 3 e ^.`. X`. X Xg 3 3 3 f k.3.3 3 3 3 3 3 3 3 3 ",
"3 3 3 3 3 3 3 3 3 6 z. X`.`. XQ.< 3 < k !.z 3 3 3 3 3 3 3 3 3 3 ",
"3 3 3 3 3 3 3 3 3 > u.`._.`..Xe.3 3 ,.v.l 3 3 3 3 3 3 3 3 3 3 3 ",
"3 3 3 3 3 3 3 3 3 , L ~.)._..Xg y s.k.s 3 3 3 3 3 3 3 3 3 3 3 3 ",
"3 3 3 3 3 3 3 3 3 < 0 P i.l.~.f k.8.3 3 3 3 3 3 3 3 3 3 3 3 3 3 ",
"3 3 3 3 3 3 3 < 3 d p F ^ t.d.b.0.r 1 < 3 3 3 3 3 3 3 3 3 3 3 3 ",
"3 3 3 3 3 3 < g 7.I.C.A.D.K.P.N.:.{ b 5 , < 3 3 3 3 3 3 3 3 3 3 ",
"3 3 3 3 3 3 i L.}.|.H.G.K.J.G.Z.;.&.@.^ 0 > 3 3 3 3 3 3 3 3 3 3 ",
"3 3 3 < < 1 T {.R.F.H.G.V.A.Z.:.%...` X.) c s 1 < < 3 3 3 3 3 3 ",
"< > 8 q t S @.#.-.B.m.m.U.=.%.@.] ( ' o.$.C R K J 8 4 > < 3 3 3 ",
"< 2 7 w c } o.@.N.L - = M.m._ ] ....` X.X.B  .R K w 4 6 < 3 3 3 ",
"< < > > @ [ X.*.S.O X X +.T./ ......` ` _ *   ,., , < 3 3 3 3 3 ",
"3 3 3 3 < c ( O.S.o X . | Y.[ ..] ( ~ ~ M     g.3 3 3 3 3 3 3 3 ",
"3 3 3 3 3 > x P n.H & + Y M.Z ! Q N m n       h.3 3 3 3 3 3 3 3 ",
"3 3 3 3 3 < > A T W Y Y E I V Q Z v         W.z 3 3 3 3 3 3 3 3 ",
"3 3 3 3 3 3 < 1 d h j q G r.z.y.j.2.>.>.p.E.w.3 3 3 3 3 3 3 3 3 ",
"3 3 3 3 3 3 3 3 < < 3 ; e 9 i z q.a.f.a.1.g u 3 3 3 3 3 3 3 3 3 ",
"3 3 3 3 3 3 3 3 3 3 3 < 1 < < 3 3 3 s 3 3 3 3 3 3 3 3 3 3 3 3 3 ",
"3 3 3 3 3 3 3 3 3 3 3 3 3 3 3 3 3 3 3 3 3 3 3 3 3 3 3 3 3 3 3 3 "
};
