/* XPM */
static char *cf69f70e8bf84fd28ba72d69c7b526e6v8m67QPrIk2lYkeH[] = {
/* columns rows colors chars-per-pixel */
"32 32 167 2 ",
"   c #251A1D",
".  c #2A161D",
"X  c #311A1B",
"o  c #3A1A1A",
"O  c #21251F",
"+  c #201D21",
"@  c #1E2521",
"#  c #232324",
"$  c #242C24",
"%  c #262228",
"&  c #342726",
"*  c #263427",
"=  c #273428",
"-  c #283328",
";  c #2B392D",
":  c #2F3331",
">  c #37393A",
",  c #521C1F",
"<  c #541C20",
"1  c #7D1E24",
"2  c #433F30",
"3  c #6E2C29",
"4  c #7C2228",
"5  c #6D302B",
"6  c #334634",
"7  c #344E34",
"8  c #3C543B",
"9  c #3C5C3D",
"0  c #574837",
"q  c #47573D",
"w  c #634034",
"e  c #3F5C40",
"r  c #3F6041",
"t  c #484B4B",
"y  c #455946",
"u  c #4E4150",
"i  c #574C59",
"p  c #6F474A",
"a  c #7F4A4E",
"s  c #794D51",
"d  c #436543",
"f  c #456C46",
"g  c #4C6142",
"h  c #4A7249",
"j  c #4C784C",
"k  c #546355",
"l  c #507F50",
"z  c #645A64",
"x  c #655667",
"c  c #5D6064",
"v  c #646B6E",
"b  c #6E646E",
"n  c #776A77",
"m  c #6E7779",
"M  c #6D7879",
"N  c #727275",
"B  c #7B7274",
"V  c #737A7D",
"C  c #71777D",
"Z  c #75696D",
"A  c #84181D",
"S  c #931921",
"D  c #981D24",
"F  c #B81E27",
"G  c #862329",
"H  c #842728",
"J  c #932127",
"K  c #93252A",
"L  c #9A242B",
"P  c #9B373E",
"I  c #83353A",
"U  c #A72226",
"Y  c #A42A2E",
"T  c #BC262C",
"R  c #BD3238",
"E  c #C01F29",
"W  c #CE232B",
"Q  c #C3232A",
"!  c #D1222B",
"~  c #DA242E",
"^  c #C32B34",
"/  c #CB2B31",
"(  c #D42B32",
")  c #DF2E34",
"_  c #DC353B",
"`  c #D6323B",
"'  c #E0262E",
"]  c #E52932",
"[  c #ED2A33",
"{  c #EC2732",
"}  c #F32A34",
"|  c #E7333C",
" . c #F1303A",
".. c #D53A42",
"X. c #F23640",
"o. c #9D4E53",
"O. c #974B52",
"+. c #915659",
"@. c #86555D",
"#. c #B64E56",
"$. c #AA545A",
"%. c #9E6367",
"&. c #846B70",
"*. c #887579",
"=. c #C5454B",
"-. c #F3474E",
";. c #F34E55",
":. c #ED555C",
">. c #F4545A",
",. c #F55A61",
"<. c #F56E72",
"1. c #F77276",
"2. c #F97B7D",
"3. c #F67178",
"4. c #528452",
"5. c #568B55",
"6. c #588F58",
"7. c #589058",
"8. c #747D80",
"9. c #787F83",
"0. c #846983",
"q. c #8C758C",
"w. c #947796",
"e. c #F67D83",
"r. c #F97D80",
"t. c #778182",
"y. c #7C8687",
"u. c #83878D",
"i. c #868F93",
"p. c #9A829C",
"a. c #8D9A9F",
"s. c #9C82A0",
"d. c #9E95A3",
"f. c #9397A0",
"g. c #A68AA6",
"h. c #AE9AAF",
"j. c #AF97B0",
"k. c #B69BB6",
"l. c #9DA8AE",
"z. c #9FA7B1",
"x. c #A0A5AD",
"c. c #ABADB7",
"v. c #A9A4B4",
"b. c #BBA7BD",
"n. c #AEB4B6",
"m. c #F99396",
"M. c #F8979B",
"N. c #F89B9E",
"B. c #F89DA2",
"V. c #C0A6BF",
"C. c #F9B3B7",
"Z. c #F8B3B8",
"A. c #BFABC1",
"S. c #C3ABC3",
"D. c #B9C1C4",
"F. c #BAC3C6",
"G. c #CBC5CD",
"H. c #C7CDD1",
"J. c #CFD7DC",
"K. c #D5D8DA",
"L. c #D7CBD6",
"P. c #DEE1E4",
"I. c #E3E7EA",
"U. c #F1EFF1",
"Y. c #EEF0F1",
"T. c #F3F4F4",
"R. c #FEFEFE",
/* pixels */
"7.7.7.7.7.7.7.7.7.7.7.7.7.7.7.7.7.7.7.7.7.7.7.7.7.7.7.7.7.7.7.7.",
"7.7.7.7.7.7.7.7.7.7.7.7.7.7.7.7.7.7.7.7.7.7.7.7.7.7.7.7.7.7.7.7.",
"7.7.7.7.7.7.7.7.7.7.7.7.7.7.7.7.7.7.7.7.7.7.7.7.7.7.7.7.7.7.7.7.",
"7.7.7.7.7.7.7.7.7.7.7.j 7 7 7 7 7 7 7 7 d 7.7.7.7.7.7.7.7.7.7.7.",
"7.7.7.7.7.7.7.7.5.4.4.g o o o o o o o o 2 4.4.5.7.7.7.7.7.7.7.7.",
"7.7.7.7.7.7.7.7.f # # 3 ) ] ) ) ) ) ) ) Y # O 6 7.7.7.7.7.7.7.7.",
"7.7.7.7.7.7.7.9 0 K K T } } } } } } } } ( L G 5 8 4.7.7.6.7.7.7.",
"7.7.7.7.7.7.6.& 4  . .} } } } } } } } } [ } ~ U X j 7.7.6.7.7.7.",
"7.7.7.7.7.9   ` ;.2.2.,.} } } } } } } } } } } { Q , ; 6.7.7.7.7.",
"7.7.7.5.r w J :.3.N.N.e.>. .} } } } } } } } } { ! D 3 8 4.7.7.7.",
"7.7.7.5.$ G } 2.m.C.C.B.2.X.} } } } } } } } } { ! W U   h 7.7.7.",
"7.7.7.5.$ G } 2.m.Z.Z.B.r.X.} } } } } } } } } { ! ! U   h 7.7.7.",
"7.7.j q H T [ ;.<.M.M.e.>. .} } } } } } } } } { ! W T 1 0 f 7.7.",
"7.7.9 X ( } } } -.1.1.>.} } } } } } } } } } [ ] ! W W W < - 7.7.",
"7.7.9 X ( } } } } } } } } } } } } } } } } } ~ ! ! ! W W , * 7.7.",
"7.7.9 X ( } } } } } } } } } } } } } } } } } ~ ! ! ! W W , * 7.7.",
"7.7.9 X / [ } } } } } } } } } } } } } } } } ~ ! ! ! W W , * 7.7.",
"7.7.9   A Q } } } } } } } } } } } } } } ] ! ! W W W Q S o - 7.7.",
"7.7.9   p P E } } [ #.$.$.$.=.} } [ ' ' ~ ! W W W F Y a & = 7.7.",
"7.7.9 # v s J _ | ..*.t.t.9.%._ [ ] W W W W ^ ^ ^ L I N > = 7.7.",
"7.7.9 # v N N B B B H.I.T.K.n.&.R ! W W E S @.B B N N M > - 7.7.",
"7.7.j e t v i.M M 8.P.T.R.Y.D.N +.o.o.o.O.a Z M M y.t.t y f 7.7.",
"7.7.7.5.$ c x.V C 8.T.R.R.R.H.M M M M M M M M M C f.u.@ h 7.7.7.",
"7.7.7.5.$ b S.T.K.l.J.I.R.P.n.M M M M M M M a.x.A.s.n + h 7.7.7.",
"7.7.7.5.f k z L.K.K.D.F.H.D.c.d.d.d.d.d.d.d.v.v.g.x t d 4.7.7.7.",
"7.7.7.7.7.d $ h.G.U.c.z.z.l.c.S.S.S.S.S.S.V.V.j.0.> 6 6.7.7.7.7.",
"7.7.7.7.7.5.5.: i p.b.A.A.A.S.S.S.S.S.S.k.w.w.n % h 5.7.7.7.7.7.",
"7.7.7.7.7.7.7.f y u z n g.g.g.g.g.g.g.g.q.u u t d 4.7.7.7.7.7.7.",
"7.7.7.7.7.7.7.7.f $ @ t 0.0.0.0.0.0.0.0.x $ $ 6 7.7.7.7.7.7.7.7.",
"7.7.7.7.7.7.7.7.5.5.5.f # # # # # # # # 6 5.5.5.7.7.7.7.7.7.7.7.",
"7.7.7.7.7.7.7.7.7.7.7.l 9 9 9 9 9 9 9 9 f 7.7.7.7.7.7.7.7.7.7.7.",
"7.7.7.7.7.7.7.7.7.7.7.7.7.7.7.7.7.7.7.7.7.7.7.7.7.7.7.7.7.7.7.7."
};
