/* XPM */
static char *af527140b3ef4b2acf5e53345b0146cfrNSydI0hm0YqkxCJ[] = {
/* columns rows colors chars-per-pixel */
"32 32 4 1 ",
"  c #291916",
". c #482620",
"X c #72473F",
"o c #8E716B",
/* pixels */
"oXXXXXXXXXXXXX XXXXXXXXXXXXXXXX ",
"oXXXXXXXXXXXXX.XXXXXXXXXXXXXXXX.",
"oXXXXXXXXXXXXX.XXXXXXXXXXXXXXXX ",
" .....   .............   .....  ",
"XXXXXXX oXXXXXXXXXXXXXX oXXXXXXX",
"XXXXXXX.oXXXXXXXXXXXXXX.oXXXXXXX",
"XXXXXXX oXXXXXXXXXXXXXX oXXXXXXX",
" .....   ....   ......   .....  ",
"oXXXXXXXXXXXXX oXXXXXXXXXXXXXXX ",
"oXXXXXXXXXXXXX.oXXXXXXXXXXXXXXX.",
"oXXXXXXXXXXXXX oXXXXXXXXXXXXXXX ",
" .....   ....   ......   .....  ",
"XXXXXXX oXXXXXXXXXXXXXX oXXXXXXX",
"XXXXXXX.oXXXXXXXXXXXXXX.oXXXXXXX",
"XXXXXXX oXXXXXXXXXXXXXX oXXXXXXX",
" .....   ....   ......   .....  ",
"oXXXXXXXXXXXXX oXXXXXXXXXXXXXXX ",
"oXXXXXXXXXXXXX.oXXXXXXXXXXXXXXX.",
"oXXXXXXXXXXXXX oXXXXXXXXXXXXXXX ",
" .....   ....   ......   .....  ",
"XXXXXXX oXXXXXXXXXXXXXX oXXXXXXX",
"XXXXXXX.oXXXXXXXXXXXXXX.oXXXXXXX",
"XXXXXXX oXXXXXXXXXXXXXX oXXXXXXX",
" .....   ....   ......   .....  ",
"oXXXXXXXXXXXXX oXXXXXXXXXXXXXXX ",
"oXXXXXXXXXXXXX.oXXXXXXXXXXXXXXX.",
"oXXXXXXXXXXXXX oXXXXXXXXXXXXXXX ",
" .....   ....   ......   .....  ",
"XXXXXXX oXXXXXXXXXXXXXX XXXXXXXX",
"XXXXXXX.oXXXXXXXXXXXXXX.XXXXXXXX",
"XXXXXXX oXXXXXXXXXXXXXX XXXXXXXX",
" .....   ....   ......   .....  "
};
